<svg id="visual" viewBox="0 0 960 540" width="960" height="540" xmlns="http://www.w3.org/2000/svg" xmlns:xlink="http://www.w3.org/1999/xlink" version="1.1">
  <rect width="960" height="540" fill="#00008B"></rect>
  <path d="M0 100L120 150L240 100L360 130L480 160L600 140L720 120L840 100L960 100L960 0L840 0L720 0L600 0L480 0L360 0L240 0L120 0L0 0Z" fill="#013b2d"></path>
  <path d="M0 200L120 230L240 200L360 230L480 260L600 220L720 180L840 140L960 160L960 100L840 100L720 120L600 140L480 160L360 130L240 100L120 150L0 100Z" fill="#014537"></path>
  <path d="M0 300L120 320L240 310L360 300L480 310L600 300L720 290L840 280L960 260L960 160L840 140L720 180L600 220L480 260L360 230L240 200L120 230L0 200Z" fill="#024f42"></path>
  <path d="M0 400L120 420L240 400L360 380L480 360L600 340L720 360L840 380L960 400L960 260L840 280L720 290L600 300L480 310L360 300L240 310L120 320L0 300Z" fill="#02594e"></path>
  <path d="M0 540L120 540L240 540L360 540L480 540L600 540L720 540L840 540L960 540L960 400L840 380L720 360L600 340L480 360L360 380L240 400L120 420L0 400Z" fill="#03745e"></path>
</svg>
